<svg width="328" height="11" viewBox="0 0 328 11" fill="none" xmlns="http://www.w3.org/2000/svg">
<path d="M10.961 9.82C11.001 9.82 11.021 9.85 11.021 9.91C11.021 9.97 11.001 10 10.961 10C10.771 10 10.476 9.99 10.076 9.97C9.67598 9.95 9.38598 9.94 9.20598 9.94C8.98598 9.94 8.70598 9.95 8.36598 9.97C8.04598 9.99 7.80098 10 7.63098 10C7.59098 10 7.57098 9.97 7.57098 9.91C7.57098 9.85 7.59098 9.82 7.63098 9.82C8.00098 9.82 8.27098 9.785 8.44098 9.715C8.61098 9.645 8.69598 9.525 8.69598 9.355C8.69598 9.215 8.63098 9 8.50098 8.71L7.16598 5.875H3.59598L2.65098 8.095C2.51098 8.435 2.44098 8.71 2.44098 8.92C2.44098 9.23 2.56098 9.46 2.80098 9.61C3.05098 9.75 3.42098 9.82 3.91098 9.82C3.96098 9.82 3.98598 9.85 3.98598 9.91C3.98598 9.97 3.96098 10 3.91098 10C3.73098 10 3.47098 9.99 3.13098 9.97C2.75098 9.95 2.42098 9.94 2.14098 9.94C1.88098 9.94 1.58098 9.95 1.24098 9.97C0.940983 9.99 0.690983 10 0.490983 10C0.440983 10 0.415983 9.97 0.415983 9.91C0.415983 9.85 0.440983 9.82 0.490983 9.82C0.770983 9.82 1.00598 9.77 1.19598 9.67C1.39598 9.56 1.58098 9.375 1.75098 9.115C1.93098 8.845 2.12598 8.46 2.33598 7.96L5.50098 0.49C5.52098 0.46 5.55598 0.445 5.60598 0.445C5.65598 0.445 5.68598 0.46 5.69598 0.49L9.23598 7.945C9.57598 8.685 9.86598 9.185 10.106 9.445C10.346 9.695 10.631 9.82 10.961 9.82ZM3.71598 5.575H7.03098L5.27598 1.87L3.71598 5.575ZM27.7182 0.625C27.7482 0.625 27.7632 0.655 27.7632 0.715C27.7632 0.775 27.7482 0.804999 27.7182 0.804999C27.2982 0.804999 26.9932 0.919999 26.8032 1.15C26.6132 1.38 26.5182 1.755 26.5182 2.275V10.18C26.5182 10.2 26.4932 10.215 26.4432 10.225C26.3932 10.235 26.3582 10.23 26.3382 10.21L19.4382 1.855L19.3032 1.705V8.365C19.3032 8.885 19.3932 9.26 19.5732 9.49C19.7632 9.71 20.0632 9.82 20.4732 9.82C20.5032 9.82 20.5182 9.85 20.5182 9.91C20.5182 9.97 20.5032 10 20.4732 10C20.2232 10 20.0332 9.995 19.9032 9.985L19.1532 9.97L18.3882 9.985C18.2482 9.995 18.0432 10 17.7732 10C17.7532 10 17.7432 9.97 17.7432 9.91C17.7432 9.85 17.7532 9.82 17.7732 9.82C18.2032 9.82 18.5082 9.71 18.6882 9.49C18.8682 9.26 18.9582 8.885 18.9582 8.365V1.345C18.5682 0.985 18.1732 0.804999 17.7732 0.804999C17.7432 0.804999 17.7282 0.775 17.7282 0.715C17.7282 0.655 17.7432 0.625 17.7732 0.625L18.3282 0.64C18.4482 0.65 18.6132 0.655 18.8232 0.655C19.0432 0.655 19.2232 0.65 19.3632 0.64C19.5032 0.63 19.6132 0.625 19.6932 0.625C19.7732 0.625 19.8282 0.645 19.8582 0.684999C19.8982 0.714999 19.9582 0.79 20.0382 0.91C20.1582 1.09 20.2782 1.255 20.3982 1.405L26.1732 8.5V2.275C26.1732 1.755 26.0832 1.38 25.9032 1.15C25.7332 0.919999 25.4432 0.804999 25.0332 0.804999C25.0132 0.804999 25.0032 0.775 25.0032 0.715C25.0032 0.655 25.0132 0.625 25.0332 0.625L25.6182 0.64C25.9182 0.66 26.1632 0.669999 26.3532 0.669999C26.5332 0.669999 26.7832 0.66 27.1032 0.64L27.7182 0.625ZM44.7666 0.625C44.7966 0.625 44.8116 0.655 44.8116 0.715C44.8116 0.775 44.7966 0.804999 44.7666 0.804999C44.3466 0.804999 44.0416 0.919999 43.8516 1.15C43.6616 1.38 43.5666 1.755 43.5666 2.275V10.18C43.5666 10.2 43.5416 10.215 43.4916 10.225C43.4416 10.235 43.4066 10.23 43.3866 10.21L36.4866 1.855L36.3516 1.705V8.365C36.3516 8.885 36.4416 9.26 36.6216 9.49C36.8116 9.71 37.1116 9.82 37.5216 9.82C37.5516 9.82 37.5666 9.85 37.5666 9.91C37.5666 9.97 37.5516 10 37.5216 10C37.2716 10 37.0816 9.995 36.9516 9.985L36.2016 9.97L35.4366 9.985C35.2966 9.995 35.0916 10 34.8216 10C34.8016 10 34.7916 9.97 34.7916 9.91C34.7916 9.85 34.8016 9.82 34.8216 9.82C35.2516 9.82 35.5566 9.71 35.7366 9.49C35.9166 9.26 36.0066 8.885 36.0066 8.365V1.345C35.6166 0.985 35.2216 0.804999 34.8216 0.804999C34.7916 0.804999 34.7766 0.775 34.7766 0.715C34.7766 0.655 34.7916 0.625 34.8216 0.625L35.3766 0.64C35.4966 0.65 35.6616 0.655 35.8716 0.655C36.0916 0.655 36.2716 0.65 36.4116 0.64C36.5516 0.63 36.6616 0.625 36.7416 0.625C36.8216 0.625 36.8766 0.645 36.9066 0.684999C36.9466 0.714999 37.0066 0.79 37.0866 0.91C37.2066 1.09 37.3266 1.255 37.4466 1.405L43.2216 8.5V2.275C43.2216 1.755 43.1316 1.38 42.9516 1.15C42.7816 0.919999 42.4916 0.804999 42.0816 0.804999C42.0616 0.804999 42.0516 0.775 42.0516 0.715C42.0516 0.655 42.0616 0.625 42.0816 0.625L42.6666 0.64C42.9666 0.66 43.2116 0.669999 43.4016 0.669999C43.5816 0.669999 43.8316 0.66 44.1516 0.64L44.7666 0.625ZM70.5357 9.82C70.5657 9.82 70.5807 9.85 70.5807 9.91C70.5807 9.97 70.5657 10 70.5357 10H68.8557C68.7757 10 68.6307 10 68.4207 10C68.2207 10.01 67.9357 9.76 67.5657 9.25C67.1957 8.73 66.8407 8.255 66.5007 7.825L64.2057 4.93L63.7107 5.41V8.785C63.7107 9.085 63.7407 9.31 63.8007 9.46C63.8607 9.6 63.9757 9.695 64.1457 9.745C64.3257 9.795 64.6057 9.82 64.9857 9.82C65.0157 9.82 65.0307 9.85 65.0307 9.91C65.0307 9.97 65.0157 10 64.9857 10C64.6857 10 64.4457 9.995 64.2657 9.985L63.2157 9.97L62.1957 9.985C62.0157 9.995 61.7657 10 61.4457 10C61.4257 10 61.4157 9.97 61.4157 9.91C61.4157 9.85 61.4257 9.82 61.4457 9.82C61.8257 9.82 62.1007 9.795 62.2707 9.745C62.4507 9.695 62.5707 9.6 62.6307 9.46C62.7007 9.31 62.7357 9.085 62.7357 8.785V1.84C62.7357 1.54 62.7057 1.32 62.6457 1.18C62.5857 1.04 62.4657 0.944999 62.2857 0.894999C62.1157 0.834999 61.8407 0.804999 61.4607 0.804999C61.4407 0.804999 61.4307 0.775 61.4307 0.715C61.4307 0.655 61.4407 0.625 61.4607 0.625L62.2107 0.64C62.6307 0.66 62.9657 0.669999 63.2157 0.669999C63.5057 0.669999 63.8607 0.66 64.2807 0.64L64.9857 0.625C65.0157 0.625 65.0307 0.655 65.0307 0.715C65.0307 0.775 65.0157 0.804999 64.9857 0.804999C64.6157 0.804999 64.3407 0.834999 64.1607 0.894999C63.9907 0.955 63.8707 1.06 63.8007 1.21C63.7407 1.35 63.7107 1.57 63.7107 1.87V5.035L66.9207 1.84C67.2507 1.51 67.4157 1.265 67.4157 1.105C67.4157 0.904999 67.1207 0.804999 66.5307 0.804999C66.5107 0.804999 66.5007 0.775 66.5007 0.715C66.5007 0.655 66.5107 0.625 66.5307 0.625L67.1757 0.64C67.5757 0.66 67.9407 0.669999 68.2707 0.669999C68.6007 0.669999 68.9457 0.66 69.3057 0.64L69.8607 0.625C69.8907 0.625 69.9057 0.655 69.9057 0.715C69.9057 0.775 69.8907 0.804999 69.8607 0.804999C69.4507 0.804999 69.0157 0.895 68.5557 1.075C68.0957 1.255 67.6657 1.54 67.2657 1.93L64.8957 4.255L67.0557 7.015C67.7857 7.965 68.3407 8.635 68.7207 9.025C69.1107 9.415 69.4107 9.645 69.6207 9.715C69.8307 9.785 70.1357 9.82 70.5357 9.82ZM87.0716 9.82C87.0916 9.82 87.1016 9.85 87.1016 9.91C87.1016 9.97 87.0916 10 87.0716 10H85.1366C84.8866 10 84.4166 9.585 83.7266 8.755C83.0366 7.925 82.2166 6.785 81.2666 5.335C80.9966 5.395 80.7166 5.425 80.4266 5.425C80.3666 5.425 80.1416 5.41 79.7516 5.38V8.785C79.7516 9.095 79.7816 9.32 79.8416 9.46C79.9016 9.6 80.0166 9.695 80.1866 9.745C80.3666 9.795 80.6466 9.82 81.0266 9.82C81.0566 9.82 81.0716 9.85 81.0716 9.91C81.0716 9.97 81.0566 10 81.0266 10C80.7166 10 80.4716 9.995 80.2916 9.985L79.2566 9.97L78.2366 9.985C78.0566 9.995 77.8016 10 77.4716 10C77.4516 10 77.4416 9.97 77.4416 9.91C77.4416 9.85 77.4516 9.82 77.4716 9.82C77.8516 9.82 78.1316 9.795 78.3116 9.745C78.4916 9.695 78.6116 9.6 78.6716 9.46C78.7416 9.31 78.7766 9.085 78.7766 8.785V1.84C78.7766 1.54 78.7466 1.32 78.6866 1.18C78.6266 1.04 78.5066 0.944999 78.3266 0.894999C78.1566 0.834999 77.8816 0.804999 77.5016 0.804999C77.4716 0.804999 77.4566 0.775 77.4566 0.715C77.4566 0.655 77.4716 0.625 77.5016 0.625L78.2366 0.64C78.6566 0.66 78.9966 0.669999 79.2566 0.669999C79.4766 0.669999 79.6816 0.664999 79.8716 0.655C80.0616 0.645 80.2216 0.635 80.3516 0.625C80.7216 0.595 81.0566 0.58 81.3566 0.58C82.1466 0.58 82.7566 0.76 83.1866 1.12C83.6166 1.48 83.8316 1.96 83.8316 2.56C83.8316 3.1 83.6716 3.59 83.3516 4.03C83.0416 4.46 82.6266 4.8 82.1066 5.05C82.9466 6.26 83.6516 7.21 84.2216 7.9C84.8016 8.58 85.3116 9.07 85.7516 9.37C86.2016 9.67 86.6416 9.82 87.0716 9.82ZM79.7516 5.02C80.0016 5.06 80.2966 5.08 80.6366 5.08C81.4166 5.08 81.9716 4.91 82.3016 4.57C82.6416 4.23 82.8116 3.705 82.8116 2.995C82.8116 2.215 82.6366 1.655 82.2866 1.315C81.9466 0.974999 81.4466 0.804999 80.7866 0.804999C80.3966 0.804999 80.1266 0.874999 79.9766 1.015C79.8266 1.155 79.7516 1.44 79.7516 1.87V5.02ZM96.0543 8.785C96.0543 9.085 96.0843 9.31 96.1443 9.46C96.2043 9.6 96.3193 9.695 96.4893 9.745C96.6693 9.795 96.9493 9.82 97.3293 9.82C97.3593 9.82 97.3743 9.85 97.3743 9.91C97.3743 9.97 97.3593 10 97.3293 10C97.0293 10 96.7893 9.995 96.6093 9.985L95.5443 9.97L94.5093 9.985C94.3293 9.995 94.0843 10 93.7743 10C93.7443 10 93.7293 9.97 93.7293 9.91C93.7293 9.85 93.7443 9.82 93.7743 9.82C94.1543 9.82 94.4293 9.795 94.5993 9.745C94.7793 9.695 94.8993 9.6 94.9593 9.46C95.0293 9.31 95.0643 9.085 95.0643 8.785V1.84C95.0643 1.54 95.0293 1.32 94.9593 1.18C94.8993 1.04 94.7793 0.944999 94.5993 0.894999C94.4293 0.834999 94.1543 0.804999 93.7743 0.804999C93.7443 0.804999 93.7293 0.775 93.7293 0.715C93.7293 0.655 93.7443 0.625 93.7743 0.625L94.5093 0.64C94.9293 0.66 95.2743 0.669999 95.5443 0.669999C95.8443 0.669999 96.2043 0.66 96.6243 0.64L97.3293 0.625C97.3593 0.625 97.3743 0.655 97.3743 0.715C97.3743 0.775 97.3593 0.804999 97.3293 0.804999C96.9593 0.804999 96.6843 0.834999 96.5043 0.894999C96.3343 0.955 96.2143 1.06 96.1443 1.21C96.0843 1.35 96.0543 1.57 96.0543 1.87V8.785ZM106.375 2.38C106.375 2.77 106.47 3.11 106.66 3.4C106.85 3.69 107.08 3.935 107.35 4.135C107.63 4.325 108.01 4.565 108.49 4.855C109.02 5.175 109.425 5.44 109.705 5.65C109.995 5.86 110.24 6.13 110.44 6.46C110.65 6.78 110.755 7.165 110.755 7.615C110.755 8.095 110.635 8.53 110.395 8.92C110.155 9.31 109.8 9.62 109.33 9.85C108.87 10.07 108.315 10.18 107.665 10.18C106.895 10.18 106.19 10.005 105.55 9.655C105.5 9.625 105.465 9.59 105.445 9.55C105.435 9.51 105.425 9.45 105.415 9.37L105.22 7.33C105.21 7.29 105.23 7.265 105.28 7.255C105.34 7.245 105.375 7.26 105.385 7.3C105.545 8.02 105.84 8.64 106.27 9.16C106.71 9.68 107.29 9.94 108.01 9.94C108.51 9.94 108.93 9.805 109.27 9.535C109.62 9.255 109.795 8.815 109.795 8.215C109.795 7.765 109.695 7.375 109.495 7.045C109.295 6.715 109.05 6.445 108.76 6.235C108.48 6.015 108.095 5.76 107.605 5.47C107.125 5.18 106.745 4.93 106.465 4.72C106.195 4.51 105.965 4.245 105.775 3.925C105.585 3.605 105.49 3.23 105.49 2.8C105.49 2.3 105.62 1.875 105.88 1.525C106.15 1.165 106.495 0.9 106.915 0.73C107.345 0.549999 107.8 0.459999 108.28 0.459999C108.87 0.459999 109.455 0.579999 110.035 0.819999C110.185 0.869999 110.26 0.954999 110.26 1.075L110.365 2.8C110.365 2.84 110.34 2.86 110.29 2.86C110.24 2.86 110.21 2.84 110.2 2.8C110.12 2.28 109.905 1.8 109.555 1.36C109.205 0.909999 108.7 0.684999 108.04 0.684999C107.48 0.684999 107.06 0.849999 106.78 1.18C106.51 1.5 106.375 1.9 106.375 2.38ZM120.553 0.894999C119.923 0.894999 119.448 1.055 119.128 1.375C118.818 1.695 118.593 2.24 118.453 3.01C118.453 3.03 118.423 3.04 118.363 3.04C118.313 3.04 118.288 3.03 118.288 3.01C118.328 2.65 118.373 2.18 118.423 1.6C118.473 1.02 118.498 0.585 118.498 0.295C118.498 0.245 118.523 0.22 118.573 0.22C118.633 0.22 118.663 0.245 118.663 0.295C118.663 0.515 118.933 0.625 119.473 0.625C120.323 0.655 121.328 0.669999 122.488 0.669999C123.078 0.669999 123.703 0.66 124.363 0.64L125.383 0.625C125.743 0.625 126.008 0.6 126.178 0.549999C126.358 0.499999 126.473 0.399999 126.523 0.249999C126.533 0.209999 126.563 0.189999 126.613 0.189999C126.663 0.189999 126.688 0.209999 126.688 0.249999C126.658 0.539999 126.628 0.979999 126.598 1.57C126.568 2.16 126.553 2.64 126.553 3.01C126.553 3.03 126.523 3.04 126.463 3.04C126.403 3.04 126.373 3.03 126.373 3.01C126.343 2.23 126.183 1.685 125.893 1.375C125.603 1.055 125.123 0.894999 124.453 0.894999C124.003 0.894999 123.683 0.914999 123.493 0.954999C123.303 0.994999 123.173 1.08 123.103 1.21C123.033 1.34 122.998 1.56 122.998 1.87V8.785C122.998 9.095 123.033 9.32 123.103 9.46C123.173 9.6 123.308 9.695 123.508 9.745C123.708 9.795 124.023 9.82 124.453 9.82C124.483 9.82 124.498 9.85 124.498 9.91C124.498 9.97 124.483 10 124.453 10C124.123 10 123.858 9.995 123.658 9.985L122.488 9.97L121.363 9.985C121.163 9.995 120.888 10 120.538 10C120.518 10 120.508 9.97 120.508 9.91C120.508 9.85 120.518 9.82 120.538 9.82C120.968 9.82 121.283 9.795 121.483 9.745C121.683 9.695 121.818 9.6 121.888 9.46C121.968 9.31 122.008 9.085 122.008 8.785V1.84C122.008 1.53 121.973 1.315 121.903 1.195C121.833 1.065 121.703 0.985 121.513 0.954999C121.323 0.914999 121.003 0.894999 120.553 0.894999ZM136.36 8.785C136.36 9.085 136.39 9.31 136.45 9.46C136.51 9.6 136.625 9.695 136.795 9.745C136.975 9.795 137.255 9.82 137.635 9.82C137.665 9.82 137.68 9.85 137.68 9.91C137.68 9.97 137.665 10 137.635 10C137.335 10 137.095 9.995 136.915 9.985L135.85 9.97L134.815 9.985C134.635 9.995 134.39 10 134.08 10C134.05 10 134.035 9.97 134.035 9.91C134.035 9.85 134.05 9.82 134.08 9.82C134.46 9.82 134.735 9.795 134.905 9.745C135.085 9.695 135.205 9.6 135.265 9.46C135.335 9.31 135.37 9.085 135.37 8.785V1.84C135.37 1.54 135.335 1.32 135.265 1.18C135.205 1.04 135.085 0.944999 134.905 0.894999C134.735 0.834999 134.46 0.804999 134.08 0.804999C134.05 0.804999 134.035 0.775 134.035 0.715C134.035 0.655 134.05 0.625 134.08 0.625L134.815 0.64C135.235 0.66 135.58 0.669999 135.85 0.669999C136.15 0.669999 136.51 0.66 136.93 0.64L137.635 0.625C137.665 0.625 137.68 0.655 137.68 0.715C137.68 0.775 137.665 0.804999 137.635 0.804999C137.265 0.804999 136.99 0.834999 136.81 0.894999C136.64 0.955 136.52 1.06 136.45 1.21C136.39 1.35 136.36 1.57 136.36 1.87V8.785ZM155.065 0.625C155.095 0.625 155.11 0.655 155.11 0.715C155.11 0.775 155.095 0.804999 155.065 0.804999C154.645 0.804999 154.34 0.919999 154.15 1.15C153.96 1.38 153.865 1.755 153.865 2.275V10.18C153.865 10.2 153.84 10.215 153.79 10.225C153.74 10.235 153.705 10.23 153.685 10.21L146.785 1.855L146.65 1.705V8.365C146.65 8.885 146.74 9.26 146.92 9.49C147.11 9.71 147.41 9.82 147.82 9.82C147.85 9.82 147.865 9.85 147.865 9.91C147.865 9.97 147.85 10 147.82 10C147.57 10 147.38 9.995 147.25 9.985L146.5 9.97L145.735 9.985C145.595 9.995 145.39 10 145.12 10C145.1 10 145.09 9.97 145.09 9.91C145.09 9.85 145.1 9.82 145.12 9.82C145.55 9.82 145.855 9.71 146.035 9.49C146.215 9.26 146.305 8.885 146.305 8.365V1.345C145.915 0.985 145.52 0.804999 145.12 0.804999C145.09 0.804999 145.075 0.775 145.075 0.715C145.075 0.655 145.09 0.625 145.12 0.625L145.675 0.64C145.795 0.65 145.96 0.655 146.17 0.655C146.39 0.655 146.57 0.65 146.71 0.64C146.85 0.63 146.96 0.625 147.04 0.625C147.12 0.625 147.175 0.645 147.205 0.684999C147.245 0.714999 147.305 0.79 147.385 0.91C147.505 1.09 147.625 1.255 147.745 1.405L153.52 8.5V2.275C153.52 1.755 153.43 1.38 153.25 1.15C153.08 0.919999 152.79 0.804999 152.38 0.804999C152.36 0.804999 152.35 0.775 152.35 0.715C152.35 0.655 152.36 0.625 152.38 0.625L152.965 0.64C153.265 0.66 153.51 0.669999 153.7 0.669999C153.88 0.669999 154.13 0.66 154.45 0.64L155.065 0.625ZM182.139 4.3C182.389 4.3 182.514 4.455 182.514 4.765C182.514 5.015 182.444 5.26 182.304 5.5C182.174 5.73 181.994 5.92 181.764 6.07C181.534 6.22 181.289 6.295 181.029 6.295C180.749 6.295 180.389 6.19 179.949 5.98C179.769 7.35 179.309 8.395 178.569 9.115C177.839 9.825 176.929 10.18 175.839 10.18C175.159 10.18 174.549 10.02 174.009 9.7C173.479 9.37 173.064 8.935 172.764 8.395C172.464 7.855 172.314 7.27 172.314 6.64C172.314 6.37 172.344 6.1 172.404 5.83C172.524 5.3 172.754 4.82 173.094 4.39C173.434 3.96 173.834 3.625 174.294 3.385C174.754 3.145 175.219 3.025 175.689 3.025C176.189 3.025 176.599 3.165 176.919 3.445C177.519 2.775 177.819 2.19 177.819 1.69C177.819 1.5 177.789 1.355 177.729 1.255C177.669 1.145 177.584 1.045 177.474 0.954999C177.394 0.875 177.334 0.805 177.294 0.744999C177.254 0.685 177.234 0.6 177.234 0.49C177.234 0.339999 177.279 0.219999 177.369 0.129999C177.459 0.0399992 177.574 -0.00500083 177.714 -0.00500083C177.934 -0.00500083 178.114 0.0949994 178.254 0.295C178.394 0.495 178.464 0.759999 178.464 1.09C178.464 1.65 178.254 2.22 177.834 2.8C177.414 3.38 176.909 3.925 176.319 4.435C175.729 4.935 174.989 5.52 174.099 6.19L173.229 6.865C173.329 7.405 173.534 7.885 173.844 8.305C174.154 8.715 174.524 9.035 174.954 9.265C175.394 9.485 175.854 9.595 176.334 9.595C177.244 9.595 177.999 9.275 178.599 8.635C179.209 7.995 179.579 7.075 179.709 5.875L179.424 5.725C179.004 5.505 178.669 5.345 178.419 5.245C178.169 5.135 177.929 5.08 177.699 5.08C177.559 5.08 177.444 5.11 177.354 5.17C177.274 5.23 177.234 5.305 177.234 5.395C177.234 5.515 177.274 5.655 177.354 5.815C177.434 5.995 177.474 6.125 177.474 6.205C177.474 6.295 177.444 6.38 177.384 6.46C177.324 6.53 177.234 6.565 177.114 6.565C176.994 6.565 176.894 6.53 176.814 6.46C176.744 6.38 176.709 6.255 176.709 6.085C176.709 5.825 176.789 5.575 176.949 5.335C177.119 5.095 177.334 4.905 177.594 4.765C177.864 4.615 178.139 4.54 178.419 4.54C178.669 4.54 178.924 4.595 179.184 4.705C179.454 4.805 179.784 4.955 180.174 5.155C180.494 5.325 180.769 5.46 180.999 5.56C181.229 5.65 181.439 5.695 181.629 5.695C181.759 5.695 181.864 5.67 181.944 5.62C182.034 5.56 182.079 5.49 182.079 5.41C182.079 5.32 182.029 5.205 181.929 5.065C181.869 4.985 181.824 4.915 181.794 4.855C181.764 4.795 181.749 4.725 181.749 4.645C181.749 4.415 181.879 4.3 182.139 4.3ZM173.229 5.35C173.179 5.67 173.154 5.94 173.154 6.16C173.154 6.27 173.164 6.425 173.184 6.625C173.454 6.405 173.734 6.185 174.024 5.965C174.934 5.265 175.644 4.685 176.154 4.225C175.904 3.695 175.494 3.43 174.924 3.43C174.534 3.43 174.184 3.615 173.874 3.985C173.574 4.345 173.359 4.8 173.229 5.35ZM204.465 0.459999C205.095 0.459999 205.625 0.504999 206.055 0.594999C206.485 0.685 206.915 0.84 207.345 1.06C207.415 1.1 207.455 1.135 207.465 1.165C207.475 1.195 207.49 1.27 207.51 1.39L207.69 3.175C207.69 3.205 207.66 3.225 207.6 3.235C207.55 3.235 207.52 3.22 207.51 3.19C207.05 1.52 206.02 0.684999 204.42 0.684999C203.58 0.684999 202.84 0.869999 202.2 1.24C201.56 1.61 201.065 2.14 200.715 2.83C200.365 3.51 200.19 4.305 200.19 5.215C200.19 6.085 200.38 6.885 200.76 7.615C201.15 8.335 201.67 8.905 202.32 9.325C202.98 9.745 203.695 9.955 204.465 9.955C205.285 9.955 205.95 9.755 206.46 9.355C206.97 8.955 207.36 8.345 207.63 7.525C207.63 7.505 207.655 7.495 207.705 7.495C207.775 7.495 207.81 7.51 207.81 7.54L207.66 9.19C207.65 9.31 207.635 9.385 207.615 9.415C207.595 9.445 207.555 9.48 207.495 9.52C206.975 9.77 206.485 9.945 206.025 10.045C205.575 10.145 205.055 10.195 204.465 10.195C203.415 10.195 202.475 9.99 201.645 9.58C200.825 9.16 200.185 8.575 199.725 7.825C199.265 7.075 199.035 6.215 199.035 5.245C199.035 4.305 199.27 3.475 199.74 2.755C200.21 2.025 200.855 1.46 201.675 1.06C202.505 0.66 203.435 0.459999 204.465 0.459999ZM225.563 9.82C225.593 9.82 225.608 9.85 225.608 9.91C225.608 9.97 225.593 10 225.563 10C225.253 10 225.008 9.995 224.828 9.985L223.793 9.97L222.683 9.985C222.513 9.995 222.278 10 221.978 10C221.948 10 221.933 9.97 221.933 9.91C221.933 9.85 221.948 9.82 221.978 9.82C222.368 9.82 222.653 9.795 222.833 9.745C223.013 9.695 223.133 9.6 223.193 9.46C223.263 9.31 223.298 9.085 223.298 8.785V5.275H217.538V8.785C217.538 9.085 217.568 9.31 217.628 9.46C217.698 9.6 217.823 9.695 218.003 9.745C218.183 9.795 218.468 9.82 218.858 9.82C218.878 9.82 218.888 9.85 218.888 9.91C218.888 9.97 218.878 10 218.858 10C218.548 10 218.303 9.995 218.123 9.985L217.043 9.97L216.008 9.985C215.828 9.995 215.578 10 215.258 10C215.238 10 215.228 9.97 215.228 9.91C215.228 9.85 215.238 9.82 215.258 9.82C215.638 9.82 215.918 9.795 216.098 9.745C216.288 9.695 216.413 9.6 216.473 9.46C216.543 9.31 216.578 9.085 216.578 8.785V1.84C216.578 1.54 216.543 1.32 216.473 1.18C216.413 1.04 216.293 0.944999 216.113 0.894999C215.933 0.834999 215.653 0.804999 215.273 0.804999C215.253 0.804999 215.243 0.775 215.243 0.715C215.243 0.655 215.253 0.625 215.273 0.625L216.038 0.64C216.458 0.66 216.793 0.669999 217.043 0.669999C217.333 0.669999 217.698 0.66 218.138 0.64L218.858 0.625C218.878 0.625 218.888 0.655 218.888 0.715C218.888 0.775 218.878 0.804999 218.858 0.804999C218.478 0.804999 218.193 0.834999 218.003 0.894999C217.823 0.955 217.698 1.06 217.628 1.21C217.568 1.35 217.538 1.57 217.538 1.87V4.96H223.298V1.87C223.298 1.57 223.263 1.35 223.193 1.21C223.133 1.06 223.013 0.955 222.833 0.894999C222.653 0.834999 222.368 0.804999 221.978 0.804999C221.948 0.804999 221.933 0.775 221.933 0.715C221.933 0.655 221.948 0.625 221.978 0.625L222.683 0.64C223.123 0.66 223.493 0.669999 223.793 0.669999C224.063 0.669999 224.408 0.66 224.828 0.64L225.563 0.625C225.593 0.625 225.608 0.655 225.608 0.715C225.608 0.775 225.593 0.804999 225.563 0.804999C225.183 0.804999 224.903 0.834999 224.723 0.894999C224.543 0.944999 224.418 1.04 224.348 1.18C224.288 1.32 224.258 1.54 224.258 1.84V8.785C224.258 9.085 224.288 9.31 224.348 9.46C224.418 9.6 224.543 9.695 224.723 9.745C224.903 9.795 225.183 9.82 225.563 9.82ZM242.51 9.82C242.53 9.82 242.54 9.85 242.54 9.91C242.54 9.97 242.53 10 242.51 10H240.575C240.325 10 239.855 9.585 239.165 8.755C238.475 7.925 237.655 6.785 236.705 5.335C236.435 5.395 236.155 5.425 235.865 5.425C235.805 5.425 235.58 5.41 235.19 5.38V8.785C235.19 9.095 235.22 9.32 235.28 9.46C235.34 9.6 235.455 9.695 235.625 9.745C235.805 9.795 236.085 9.82 236.465 9.82C236.495 9.82 236.51 9.85 236.51 9.91C236.51 9.97 236.495 10 236.465 10C236.155 10 235.91 9.995 235.73 9.985L234.695 9.97L233.675 9.985C233.495 9.995 233.24 10 232.91 10C232.89 10 232.88 9.97 232.88 9.91C232.88 9.85 232.89 9.82 232.91 9.82C233.29 9.82 233.57 9.795 233.75 9.745C233.93 9.695 234.05 9.6 234.11 9.46C234.18 9.31 234.215 9.085 234.215 8.785V1.84C234.215 1.54 234.185 1.32 234.125 1.18C234.065 1.04 233.945 0.944999 233.765 0.894999C233.595 0.834999 233.32 0.804999 232.94 0.804999C232.91 0.804999 232.895 0.775 232.895 0.715C232.895 0.655 232.91 0.625 232.94 0.625L233.675 0.64C234.095 0.66 234.435 0.669999 234.695 0.669999C234.915 0.669999 235.12 0.664999 235.31 0.655C235.5 0.645 235.66 0.635 235.79 0.625C236.16 0.595 236.495 0.58 236.795 0.58C237.585 0.58 238.195 0.76 238.625 1.12C239.055 1.48 239.27 1.96 239.27 2.56C239.27 3.1 239.11 3.59 238.79 4.03C238.48 4.46 238.065 4.8 237.545 5.05C238.385 6.26 239.09 7.21 239.66 7.9C240.24 8.58 240.75 9.07 241.19 9.37C241.64 9.67 242.08 9.82 242.51 9.82ZM235.19 5.02C235.44 5.06 235.735 5.08 236.075 5.08C236.855 5.08 237.41 4.91 237.74 4.57C238.08 4.23 238.25 3.705 238.25 2.995C238.25 2.215 238.075 1.655 237.725 1.315C237.385 0.974999 236.885 0.804999 236.225 0.804999C235.835 0.804999 235.565 0.874999 235.415 1.015C235.265 1.155 235.19 1.44 235.19 1.87V5.02ZM251.492 8.785C251.492 9.085 251.522 9.31 251.582 9.46C251.642 9.6 251.757 9.695 251.927 9.745C252.107 9.795 252.387 9.82 252.767 9.82C252.797 9.82 252.812 9.85 252.812 9.91C252.812 9.97 252.797 10 252.767 10C252.467 10 252.227 9.995 252.047 9.985L250.982 9.97L249.947 9.985C249.767 9.995 249.522 10 249.212 10C249.182 10 249.167 9.97 249.167 9.91C249.167 9.85 249.182 9.82 249.212 9.82C249.592 9.82 249.867 9.795 250.037 9.745C250.217 9.695 250.337 9.6 250.397 9.46C250.467 9.31 250.502 9.085 250.502 8.785V1.84C250.502 1.54 250.467 1.32 250.397 1.18C250.337 1.04 250.217 0.944999 250.037 0.894999C249.867 0.834999 249.592 0.804999 249.212 0.804999C249.182 0.804999 249.167 0.775 249.167 0.715C249.167 0.655 249.182 0.625 249.212 0.625L249.947 0.64C250.367 0.66 250.712 0.669999 250.982 0.669999C251.282 0.669999 251.642 0.66 252.062 0.64L252.767 0.625C252.797 0.625 252.812 0.655 252.812 0.715C252.812 0.775 252.797 0.804999 252.767 0.804999C252.397 0.804999 252.122 0.834999 251.942 0.894999C251.772 0.955 251.652 1.06 251.582 1.21C251.522 1.35 251.492 1.57 251.492 1.87V8.785ZM261.813 2.38C261.813 2.77 261.908 3.11 262.098 3.4C262.288 3.69 262.518 3.935 262.788 4.135C263.068 4.325 263.448 4.565 263.928 4.855C264.458 5.175 264.863 5.44 265.143 5.65C265.433 5.86 265.678 6.13 265.878 6.46C266.088 6.78 266.193 7.165 266.193 7.615C266.193 8.095 266.073 8.53 265.833 8.92C265.593 9.31 265.238 9.62 264.768 9.85C264.308 10.07 263.753 10.18 263.103 10.18C262.333 10.18 261.628 10.005 260.988 9.655C260.938 9.625 260.903 9.59 260.883 9.55C260.873 9.51 260.863 9.45 260.853 9.37L260.658 7.33C260.648 7.29 260.668 7.265 260.718 7.255C260.778 7.245 260.813 7.26 260.823 7.3C260.983 8.02 261.278 8.64 261.708 9.16C262.148 9.68 262.728 9.94 263.448 9.94C263.948 9.94 264.368 9.805 264.708 9.535C265.058 9.255 265.233 8.815 265.233 8.215C265.233 7.765 265.133 7.375 264.933 7.045C264.733 6.715 264.488 6.445 264.198 6.235C263.918 6.015 263.533 5.76 263.043 5.47C262.563 5.18 262.183 4.93 261.903 4.72C261.633 4.51 261.403 4.245 261.213 3.925C261.023 3.605 260.928 3.23 260.928 2.8C260.928 2.3 261.058 1.875 261.318 1.525C261.588 1.165 261.933 0.9 262.353 0.73C262.783 0.549999 263.238 0.459999 263.718 0.459999C264.308 0.459999 264.893 0.579999 265.473 0.819999C265.623 0.869999 265.698 0.954999 265.698 1.075L265.803 2.8C265.803 2.84 265.778 2.86 265.728 2.86C265.678 2.86 265.648 2.84 265.638 2.8C265.558 2.28 265.343 1.8 264.993 1.36C264.643 0.909999 264.138 0.684999 263.478 0.684999C262.918 0.684999 262.498 0.849999 262.218 1.18C261.948 1.5 261.813 1.9 261.813 2.38ZM275.991 0.894999C275.361 0.894999 274.886 1.055 274.566 1.375C274.256 1.695 274.031 2.24 273.891 3.01C273.891 3.03 273.861 3.04 273.801 3.04C273.751 3.04 273.726 3.03 273.726 3.01C273.766 2.65 273.811 2.18 273.861 1.6C273.911 1.02 273.936 0.585 273.936 0.295C273.936 0.245 273.961 0.22 274.011 0.22C274.071 0.22 274.101 0.245 274.101 0.295C274.101 0.515 274.371 0.625 274.911 0.625C275.761 0.655 276.766 0.669999 277.926 0.669999C278.516 0.669999 279.141 0.66 279.801 0.64L280.821 0.625C281.181 0.625 281.446 0.6 281.616 0.549999C281.796 0.499999 281.911 0.399999 281.961 0.249999C281.971 0.209999 282.001 0.189999 282.051 0.189999C282.101 0.189999 282.126 0.209999 282.126 0.249999C282.096 0.539999 282.066 0.979999 282.036 1.57C282.006 2.16 281.991 2.64 281.991 3.01C281.991 3.03 281.961 3.04 281.901 3.04C281.841 3.04 281.811 3.03 281.811 3.01C281.781 2.23 281.621 1.685 281.331 1.375C281.041 1.055 280.561 0.894999 279.891 0.894999C279.441 0.894999 279.121 0.914999 278.931 0.954999C278.741 0.994999 278.611 1.08 278.541 1.21C278.471 1.34 278.436 1.56 278.436 1.87V8.785C278.436 9.095 278.471 9.32 278.541 9.46C278.611 9.6 278.746 9.695 278.946 9.745C279.146 9.795 279.461 9.82 279.891 9.82C279.921 9.82 279.936 9.85 279.936 9.91C279.936 9.97 279.921 10 279.891 10C279.561 10 279.296 9.995 279.096 9.985L277.926 9.97L276.801 9.985C276.601 9.995 276.326 10 275.976 10C275.956 10 275.946 9.97 275.946 9.91C275.946 9.85 275.956 9.82 275.976 9.82C276.406 9.82 276.721 9.795 276.921 9.745C277.121 9.695 277.256 9.6 277.326 9.46C277.406 9.31 277.446 9.085 277.446 8.785V1.84C277.446 1.53 277.411 1.315 277.341 1.195C277.271 1.065 277.141 0.985 276.951 0.954999C276.761 0.914999 276.441 0.894999 275.991 0.894999ZM291.798 8.785C291.798 9.085 291.828 9.31 291.888 9.46C291.948 9.6 292.063 9.695 292.233 9.745C292.413 9.795 292.693 9.82 293.073 9.82C293.103 9.82 293.118 9.85 293.118 9.91C293.118 9.97 293.103 10 293.073 10C292.773 10 292.533 9.995 292.353 9.985L291.288 9.97L290.253 9.985C290.073 9.995 289.828 10 289.518 10C289.488 10 289.473 9.97 289.473 9.91C289.473 9.85 289.488 9.82 289.518 9.82C289.898 9.82 290.173 9.795 290.343 9.745C290.523 9.695 290.643 9.6 290.703 9.46C290.773 9.31 290.808 9.085 290.808 8.785V1.84C290.808 1.54 290.773 1.32 290.703 1.18C290.643 1.04 290.523 0.944999 290.343 0.894999C290.173 0.834999 289.898 0.804999 289.518 0.804999C289.488 0.804999 289.473 0.775 289.473 0.715C289.473 0.655 289.488 0.625 289.518 0.625L290.253 0.64C290.673 0.66 291.018 0.669999 291.288 0.669999C291.588 0.669999 291.948 0.66 292.368 0.64L293.073 0.625C293.103 0.625 293.118 0.655 293.118 0.715C293.118 0.775 293.103 0.804999 293.073 0.804999C292.703 0.804999 292.428 0.834999 292.248 0.894999C292.078 0.955 291.958 1.06 291.888 1.21C291.828 1.35 291.798 1.57 291.798 1.87V8.785ZM310.428 9.82C310.468 9.82 310.488 9.85 310.488 9.91C310.488 9.97 310.468 10 310.428 10C310.238 10 309.943 9.99 309.543 9.97C309.143 9.95 308.853 9.94 308.673 9.94C308.453 9.94 308.173 9.95 307.833 9.97C307.513 9.99 307.268 10 307.098 10C307.058 10 307.038 9.97 307.038 9.91C307.038 9.85 307.058 9.82 307.098 9.82C307.468 9.82 307.738 9.785 307.908 9.715C308.078 9.645 308.163 9.525 308.163 9.355C308.163 9.215 308.098 9 307.968 8.71L306.633 5.875H303.063L302.118 8.095C301.978 8.435 301.908 8.71 301.908 8.92C301.908 9.23 302.028 9.46 302.268 9.61C302.518 9.75 302.888 9.82 303.378 9.82C303.428 9.82 303.453 9.85 303.453 9.91C303.453 9.97 303.428 10 303.378 10C303.198 10 302.938 9.99 302.598 9.97C302.218 9.95 301.888 9.94 301.608 9.94C301.348 9.94 301.048 9.95 300.708 9.97C300.408 9.99 300.158 10 299.958 10C299.908 10 299.883 9.97 299.883 9.91C299.883 9.85 299.908 9.82 299.958 9.82C300.238 9.82 300.473 9.77 300.663 9.67C300.863 9.56 301.048 9.375 301.218 9.115C301.398 8.845 301.593 8.46 301.803 7.96L304.968 0.49C304.988 0.46 305.023 0.445 305.073 0.445C305.123 0.445 305.153 0.46 305.163 0.49L308.703 7.945C309.043 8.685 309.333 9.185 309.573 9.445C309.813 9.695 310.098 9.82 310.428 9.82ZM303.183 5.575H306.498L304.743 1.87L303.183 5.575ZM327.186 0.625C327.216 0.625 327.231 0.655 327.231 0.715C327.231 0.775 327.216 0.804999 327.186 0.804999C326.766 0.804999 326.461 0.919999 326.271 1.15C326.081 1.38 325.986 1.755 325.986 2.275V10.18C325.986 10.2 325.961 10.215 325.911 10.225C325.861 10.235 325.826 10.23 325.806 10.21L318.906 1.855L318.771 1.705V8.365C318.771 8.885 318.861 9.26 319.041 9.49C319.231 9.71 319.531 9.82 319.941 9.82C319.971 9.82 319.986 9.85 319.986 9.91C319.986 9.97 319.971 10 319.941 10C319.691 10 319.501 9.995 319.371 9.985L318.621 9.97L317.856 9.985C317.716 9.995 317.511 10 317.241 10C317.221 10 317.211 9.97 317.211 9.91C317.211 9.85 317.221 9.82 317.241 9.82C317.671 9.82 317.976 9.71 318.156 9.49C318.336 9.26 318.426 8.885 318.426 8.365V1.345C318.036 0.985 317.641 0.804999 317.241 0.804999C317.211 0.804999 317.196 0.775 317.196 0.715C317.196 0.655 317.211 0.625 317.241 0.625L317.796 0.64C317.916 0.65 318.081 0.655 318.291 0.655C318.511 0.655 318.691 0.65 318.831 0.64C318.971 0.63 319.081 0.625 319.161 0.625C319.241 0.625 319.296 0.645 319.326 0.684999C319.366 0.714999 319.426 0.79 319.506 0.91C319.626 1.09 319.746 1.255 319.866 1.405L325.641 8.5V2.275C325.641 1.755 325.551 1.38 325.371 1.15C325.201 0.919999 324.911 0.804999 324.501 0.804999C324.481 0.804999 324.471 0.775 324.471 0.715C324.471 0.655 324.481 0.625 324.501 0.625L325.086 0.64C325.386 0.66 325.631 0.669999 325.821 0.669999C326.001 0.669999 326.251 0.66 326.571 0.64L327.186 0.625Z" fill="black"/>
</svg>
